# xmcd
#
# Track frame offsets:
#	150
#	17972
#	41986
#	55474
#	75448
#	98057
#	131385
#	149619
#	166841
#
# Disc length: 2543 seconds
# Revision: 0
# Processed by: cddbd v1.5.2PL0 Copyright (c) Steve Scherf et al.
# Submitted via: dBpowerAMP V12.0
#
DISCID=7609ed09
DTITLE=Virgil Caine - Layabout Days
DYEAR=2008
DGENRE=Folk/Rock
TTITLE0=First Scent of Fall
TTITLE1=Pandora's Hat
TTITLE2=White Pages
TTITLE3=Buck Is Building Something
TTITLE4=Up We Go
TTITLE5=Iron Horse Blues
TTITLE6=The Longest Way
TTITLE7=Old Birch Road
TTITLE8=Banquet
EXTD=
EXTT0=
EXTT1=
EXTT2=
EXTT3=
EXTT4=
EXTT5=
EXTT6=
EXTT7=
EXTT8=
PLAYORDER=
